<svg width="204" height="170" viewBox="0 0 204 170" fill="none" xmlns="http://www.w3.org/2000/svg">
<path d="M23.4343 69.4733L101.597 3L180.392 69.4733M23.4343 69.4733L2 87.7021C81.4198 41.2182 168.425 68.3338 202 87.7021L180.392 69.4733M23.4343 69.4733C101.275 32.1888 152.945 59.5912 180.392 69.4733" stroke="#8F884E" stroke-width="3.22061"/>
<path d="M166.251 95.5668C163.728 105.765 147.314 122.62 101.839 108.449V91.8631C107.636 82.3623 122.419 68.095 135.172 87.0322C147.926 105.969 161.205 100.612 166.251 95.5668Z" fill="#658100" stroke="#658100" stroke-width="3.22061"/>
<path d="M37.4266 95.5668C39.9494 105.765 56.3638 122.62 101.839 108.449V91.8631C96.0418 82.3623 81.2592 68.095 68.5055 87.0322C55.7519 105.969 42.4723 100.612 37.4266 95.5668Z" fill="#658100" stroke="#658100" stroke-width="3.22061"/>
<path d="M102.195 110.125C102.184 110.165 102.172 110.206 102.161 110.246C102.172 110.206 102.184 110.165 102.195 110.125C112.326 73.8964 138.422 97.526 141.627 101.709C132.552 95.4384 108.662 87.081 102.195 110.125Z" fill="white"/>
<path d="M141.627 101.709C138.419 97.5214 112.268 73.8438 102.161 110.246C108.578 87.0517 132.536 95.4274 141.627 101.709ZM141.627 101.709C141.775 101.901 143.868 103.322 145.478 104.932" stroke="white" stroke-width="1.61031" stroke-linecap="round"/>
<path d="M101.483 110.125C101.495 110.165 101.506 110.206 101.517 110.246C101.506 110.206 101.495 110.165 101.483 110.125C91.3518 73.8964 65.2559 97.526 62.0508 101.709C71.1261 95.4384 95.0162 87.081 101.483 110.125Z" fill="white"/>
<path d="M62.0508 101.709C65.2595 97.5214 91.4099 73.8438 101.517 110.246C95.0998 87.0517 71.142 95.4274 62.0508 101.709ZM62.0508 101.709C61.9036 101.901 59.8102 103.322 58.1999 104.932" stroke="white" stroke-width="1.61031" stroke-linecap="round"/>
<path d="M76.4619 125.595C78.4372 125.595 80.1334 125.938 81.5504 126.626C82.989 127.291 84.084 128.236 84.8355 129.46C85.6084 130.683 85.9949 132.111 85.9949 133.743C85.9949 135.375 85.6084 136.803 84.8355 138.026C84.084 139.25 82.989 140.206 81.5504 140.893C80.1334 141.558 78.4372 141.891 76.4619 141.891H65.8983V136.964H76.1398C77.2992 136.964 78.2117 136.685 78.8773 136.126C79.5429 135.547 79.8757 134.752 79.8757 133.743C79.8757 132.734 79.5429 131.95 78.8773 131.392C78.2117 130.812 77.2992 130.522 76.1398 130.522H66.4458L69.1833 127.688V149.75H63.0963V125.595H76.4619ZM103.289 149.75L102.483 143.083L103.353 140.571L102.483 138.091L103.289 131.392H109.504L108.377 140.571L109.504 149.75H103.289ZM104.77 140.571C104.448 142.525 103.836 144.232 102.934 145.692C102.033 147.13 100.895 148.257 99.5205 149.073C98.1463 149.868 96.6004 150.265 94.8828 150.265C93.0792 150.265 91.4904 149.857 90.1163 149.041C88.7636 148.225 87.7008 147.098 86.9279 145.659C86.1549 144.199 85.7684 142.503 85.7684 140.571C85.7684 138.638 86.1549 136.953 86.9279 135.514C87.7008 134.054 88.7636 132.916 90.1163 132.101C91.4904 131.285 93.0792 130.877 94.8828 130.877C96.6004 130.877 98.1463 131.285 99.5205 132.101C100.895 132.895 102.033 134.011 102.934 135.45C103.858 136.889 104.469 138.595 104.77 140.571ZM91.8232 140.571C91.8232 141.558 92.0272 142.439 92.4351 143.212C92.8431 143.963 93.4013 144.564 94.1098 145.015C94.8398 145.445 95.6772 145.659 96.6219 145.659C97.5666 145.659 98.4577 145.445 99.295 145.015C100.154 144.564 100.905 143.963 101.549 143.212C102.194 142.439 102.677 141.558 102.999 140.571C102.677 139.583 102.194 138.714 101.549 137.962C100.905 137.189 100.154 136.588 99.295 136.159C98.4577 135.708 97.5666 135.482 96.6219 135.482C95.6772 135.482 94.8398 135.708 94.1098 136.159C93.4013 136.588 92.8431 137.189 92.4351 137.962C92.0272 138.714 91.8232 139.583 91.8232 140.571ZM124.853 125.595C126.828 125.595 128.524 125.938 129.941 126.626C131.38 127.291 132.475 128.236 133.226 129.46C133.999 130.683 134.386 132.111 134.386 133.743C134.386 135.375 133.999 136.803 133.226 138.026C132.475 139.25 131.38 140.206 129.941 140.893C128.524 141.558 126.828 141.891 124.853 141.891H114.289V136.964H124.531C125.69 136.964 126.603 136.685 127.268 136.126C127.934 135.547 128.267 134.752 128.267 133.743C128.267 132.734 127.934 131.95 127.268 131.392C126.603 130.812 125.69 130.522 124.531 130.522H114.837L117.574 127.688V149.75H111.487V125.595H124.853ZM135.374 131.134L138.337 131.746L141.332 131.134V149.75H135.374V131.134ZM138.369 129.46C137.317 129.46 136.458 129.191 135.793 128.655C135.127 128.096 134.794 127.366 134.794 126.464C134.794 125.541 135.127 124.811 135.793 124.274C136.458 123.738 137.317 123.469 138.369 123.469C139.443 123.469 140.302 123.738 140.946 124.274C141.59 124.811 141.912 125.541 141.912 126.464C141.912 127.366 141.59 128.096 140.946 128.655C140.302 129.191 139.443 129.46 138.369 129.46Z" fill="#658100"/>
<path d="M52.7652 153.556C53.667 153.556 54.4453 153.718 55.1002 154.04C55.7658 154.362 56.2757 154.813 56.63 155.392C56.995 155.961 57.1775 156.621 57.1775 157.373C57.1775 158.124 56.995 158.79 56.63 159.37C56.2757 159.939 55.7658 160.384 55.1002 160.706C54.4453 161.028 53.667 161.189 52.7652 161.189H47.3385V159.354H52.6847C53.4147 159.354 53.9837 159.176 54.3916 158.822C54.8103 158.468 55.0196 157.985 55.0196 157.373C55.0196 156.761 54.8103 156.278 54.3916 155.924C53.9837 155.569 53.4147 155.392 52.6847 155.392H47.5478L48.4979 154.329V165.634H46.3723V153.556H52.7652ZM66.1727 165.634L65.8184 162.252L66.2371 161.077L65.8184 159.917L66.1727 156.519H68.3305L67.8474 161.077L68.3305 165.634H66.1727ZM66.8168 161.077C66.6128 162.032 66.2746 162.869 65.8023 163.589C65.3299 164.308 64.7448 164.866 64.047 165.263C63.36 165.661 62.5924 165.859 61.7443 165.859C60.8533 165.859 60.0642 165.661 59.3772 165.263C58.6901 164.855 58.1533 164.292 57.7669 163.573C57.3804 162.853 57.1871 162.021 57.1871 161.077C57.1871 160.121 57.3804 159.289 57.7669 158.581C58.1533 157.861 58.6901 157.303 59.3772 156.906C60.0642 156.498 60.8533 156.294 61.7443 156.294C62.5924 156.294 63.36 156.493 64.047 156.89C64.7448 157.287 65.3299 157.845 65.8023 158.565C66.2854 159.273 66.6235 160.11 66.8168 161.077ZM59.3127 161.077C59.3127 161.689 59.4362 162.231 59.6831 162.703C59.9408 163.165 60.2897 163.53 60.7298 163.798C61.17 164.056 61.6745 164.185 62.2435 164.185C62.8232 164.185 63.36 164.056 63.8538 163.798C64.3476 163.53 64.7824 163.165 65.1582 162.703C65.5446 162.231 65.8506 161.689 66.076 161.077C65.8506 160.465 65.5446 159.928 65.1582 159.466C64.7824 158.994 64.3476 158.629 63.8538 158.371C63.36 158.103 62.8232 157.969 62.2435 157.969C61.6745 157.969 61.17 158.103 60.7298 158.371C60.2897 158.629 59.9408 158.994 59.6831 159.466C59.4362 159.928 59.3127 160.465 59.3127 161.077ZM69.1052 156.519H71.1986L71.7461 159.804V165.634H69.6527V159.499L69.1052 156.519ZM75.3693 156.294C76.2281 156.294 76.9581 156.466 77.5593 156.809C78.1605 157.153 78.6167 157.647 78.928 158.291C79.2501 158.924 79.4111 159.692 79.4111 160.594V165.634H77.3177V160.932C77.3177 159.976 77.0923 159.257 76.6414 158.774C76.2013 158.28 75.5518 158.033 74.6929 158.033C74.1025 158.033 73.5818 158.167 73.1309 158.436C72.6908 158.693 72.3473 159.058 72.1003 159.531C71.8642 160.003 71.7461 160.556 71.7461 161.189L71.0053 160.787C71.1019 159.842 71.3489 159.037 71.7461 158.371C72.1433 157.706 72.6532 157.196 73.2759 156.842C73.8985 156.477 74.5963 156.294 75.3693 156.294ZM85.6779 165.859C84.6151 165.859 83.6703 165.661 82.8437 165.263C82.0171 164.855 81.3676 164.292 80.8953 163.573C80.4229 162.853 80.1867 162.016 80.1867 161.061C80.1867 160.116 80.4068 159.289 80.8469 158.581C81.2978 157.861 81.9151 157.303 82.6988 156.906C83.4932 156.498 84.4004 156.294 85.4202 156.294C86.4401 156.294 87.3204 156.525 88.0611 156.986C88.8126 157.437 89.3923 158.076 89.8002 158.903C90.2082 159.729 90.4122 160.701 90.4122 161.817H81.8292V160.223H89.3655L88.3188 160.819C88.2866 160.218 88.1416 159.702 87.884 159.273C87.6371 158.844 87.2989 158.516 86.8695 158.291C86.4508 158.055 85.9516 157.937 85.3719 157.937C84.76 157.937 84.2232 158.06 83.7616 158.307C83.3107 158.554 82.9564 158.903 82.6988 159.354C82.4411 159.794 82.3123 160.32 82.3123 160.932C82.3123 161.608 82.4626 162.193 82.7632 162.687C83.0745 163.181 83.5093 163.562 84.0676 163.83C84.6365 164.088 85.3075 164.217 86.0804 164.217C86.7782 164.217 87.4921 164.109 88.2221 163.895C88.9522 163.669 89.5963 163.358 90.1545 162.961V164.474C89.5963 164.904 88.9146 165.242 88.1094 165.489C87.315 165.736 86.5045 165.859 85.6779 165.859ZM90.8946 156.519H92.988L93.5355 159.804V165.634H91.4421V159.499L90.8946 156.519ZM97.1587 156.294C98.0175 156.294 98.7475 156.466 99.3487 156.809C99.9499 157.153 100.406 157.647 100.717 158.291C101.04 158.924 101.201 159.692 101.201 160.594V165.634H99.1072V160.932C99.1072 159.976 98.8817 159.257 98.4309 158.774C97.9907 158.28 97.3412 158.033 96.4824 158.033C95.8919 158.033 95.3713 158.167 94.9204 158.436C94.4802 158.693 94.1367 159.058 93.8898 159.531C93.6536 160.003 93.5355 160.556 93.5355 161.189L92.7948 160.787C92.8914 159.842 93.1383 159.037 93.5355 158.371C93.9327 157.706 94.4427 157.196 95.0653 156.842C95.688 156.477 96.3858 156.294 97.1587 156.294ZM112.582 153.556C113.484 153.556 114.263 153.718 114.917 154.04C115.583 154.362 116.093 154.813 116.447 155.392C116.812 155.961 116.995 156.621 116.995 157.373C116.995 158.124 116.812 158.79 116.447 159.37C116.093 159.939 115.583 160.384 114.917 160.706C114.263 161.028 113.484 161.189 112.582 161.189H107.156V159.354H112.502C113.232 159.354 113.801 159.176 114.209 158.822C114.628 158.468 114.837 157.985 114.837 157.373C114.837 156.761 114.628 156.278 114.209 155.924C113.801 155.569 113.232 155.392 112.502 155.392H107.365L108.315 154.329V165.634H106.19V153.556H112.582ZM117.692 156.455L118.739 156.648L119.785 156.455V165.634H117.692V156.455ZM118.739 155.312C118.341 155.312 118.014 155.204 117.756 154.99C117.499 154.764 117.37 154.474 117.37 154.12C117.37 153.766 117.499 153.481 117.756 153.267C118.014 153.041 118.341 152.928 118.739 152.928C119.147 152.928 119.474 153.041 119.721 153.267C119.979 153.481 120.107 153.766 120.107 154.12C120.107 154.474 119.979 154.764 119.721 154.99C119.474 155.204 119.147 155.312 118.739 155.312ZM120.761 156.519H122.854L123.402 159.804V165.634H121.308V159.499L120.761 156.519ZM127.025 156.294C127.884 156.294 128.614 156.466 129.215 156.809C129.816 157.153 130.272 157.647 130.584 158.291C130.906 158.924 131.067 159.692 131.067 160.594V165.634H128.973V160.932C128.973 159.976 128.748 159.257 128.297 158.774C127.857 158.28 127.207 158.033 126.349 158.033C125.758 158.033 125.237 158.167 124.787 158.436C124.346 158.693 124.003 159.058 123.756 159.531C123.52 160.003 123.402 160.556 123.402 161.189L122.661 160.787C122.758 159.842 123.004 159.037 123.402 158.371C123.799 157.706 124.309 157.196 124.931 156.842C125.554 156.477 126.252 156.294 127.025 156.294ZM131.201 158.13V157.18L133.15 156.68L134.019 154.136H135.243V156.519H139.478V158.13H135.243V162.075C135.243 162.837 135.404 163.374 135.726 163.685C136.059 163.986 136.596 164.136 137.336 164.136C137.809 164.136 138.228 164.088 138.593 163.991C138.958 163.884 139.306 163.734 139.639 163.54V165.263C139.36 165.403 138.963 165.537 138.448 165.666C137.943 165.795 137.422 165.859 136.886 165.859C135.995 165.859 135.275 165.714 134.728 165.424C134.18 165.124 133.778 164.716 133.52 164.201C133.273 163.675 133.15 163.073 133.15 162.397V158.13H131.201ZM148.578 165.634L148.224 162.252L148.643 161.077L148.224 159.917L148.578 156.519H150.736L150.253 161.077L150.736 165.634H148.578ZM149.222 161.077C149.018 162.032 148.68 162.869 148.208 163.589C147.735 164.308 147.15 164.866 146.453 165.263C145.766 165.661 144.998 165.859 144.15 165.859C143.259 165.859 142.47 165.661 141.783 165.263C141.096 164.855 140.559 164.292 140.172 163.573C139.786 162.853 139.593 162.021 139.593 161.077C139.593 160.121 139.786 159.289 140.172 158.581C140.559 157.861 141.096 157.303 141.783 156.906C142.47 156.498 143.259 156.294 144.15 156.294C144.998 156.294 145.766 156.493 146.453 156.89C147.15 157.287 147.735 157.845 148.208 158.565C148.691 159.273 149.029 160.11 149.222 161.077ZM141.718 161.077C141.718 161.689 141.842 162.231 142.089 162.703C142.346 163.165 142.695 163.53 143.135 163.798C143.575 164.056 144.08 164.185 144.649 164.185C145.229 164.185 145.766 164.056 146.259 163.798C146.753 163.53 147.188 163.165 147.564 162.703C147.95 162.231 148.256 161.689 148.482 161.077C148.256 160.465 147.95 159.928 147.564 159.466C147.188 158.994 146.753 158.629 146.259 158.371C145.766 158.103 145.229 157.969 144.649 157.969C144.08 157.969 143.575 158.103 143.135 158.371C142.695 158.629 142.346 158.994 142.089 159.466C141.842 159.928 141.718 160.465 141.718 161.077ZM151.511 156.519H153.604L154.152 159.837V165.634H152.058V159.434L151.511 156.519ZM158.773 156.455V158.291C158.537 158.226 158.279 158.178 158 158.146C157.721 158.114 157.458 158.098 157.211 158.098C156.621 158.098 156.095 158.226 155.633 158.484C155.171 158.742 154.806 159.128 154.538 159.643C154.28 160.148 154.152 160.771 154.152 161.511L153.669 160.916C153.711 160.271 153.819 159.67 153.991 159.112C154.173 158.543 154.42 158.049 154.731 157.631C155.053 157.212 155.445 156.884 155.907 156.648C156.368 156.412 156.905 156.294 157.517 156.294C157.732 156.294 157.952 156.31 158.177 156.342C158.403 156.364 158.601 156.401 158.773 156.455Z" fill="#658100"/>
</svg>
