<svg width="97" height="79" viewBox="0 0 97 79" fill="none" xmlns="http://www.w3.org/2000/svg">
<path d="M95.2056 78.0003H5.9171H1.5C2.23618 71.8256 7.36843 60.7278 22.008 65.7342C32.3566 52.3167 55.5569 58.3079 65.8634 62.9806C70.9115 62.3131 82.2067 62.9306 87.0024 70.7408C95.5842 66.5353 96.0469 73.8282 95.2056 78.0003Z" fill="#8F884E" stroke="black" stroke-width="2"/>
<path d="M51.3081 39.4045C49.8809 46.3616 49.163 53.3498 48.9395 58.3084C48.3561 54.6839 47.3219 50.0532 45.8166 45.3119C25.0414 32.0529 -10.0081 6.16497 15.9956 8.6855C41.9994 11.206 46.7112 34.1533 45.8166 45.3119C47.3219 50.0532 48.3561 54.6839 48.9395 58.3084C49.163 53.3498 49.8809 46.3616 51.3081 39.4045C46.5653 28.9023 44.4592 6.63762 73.9769 1.59656C103.495 -3.44449 71.1634 24.7014 51.3081 39.4045Z" fill="#9AC300"/>
<path d="M65.1918 14.1992C58.1638 17.7436 53.6214 28.1271 51.3081 39.4045M24.3414 20.5005C32.2479 23.6511 42.0335 33.3957 45.8166 45.3119M51.3081 39.4045C49.8809 46.3616 49.163 53.3498 48.9395 58.3084C48.3561 54.6839 47.3219 50.0532 45.8166 45.3119M51.3081 39.4045C46.5653 28.9023 44.4592 6.63762 73.9769 1.59656C103.495 -3.44449 71.1634 24.7014 51.3081 39.4045ZM45.8166 45.3119C46.7112 34.1533 41.9994 11.206 15.9956 8.6855C-10.0081 6.16497 25.0414 32.0529 45.8166 45.3119Z" stroke="black" stroke-width="2"/>
</svg>
