<svg width="101" height="80" viewBox="0 0 101 80" fill="none" xmlns="http://www.w3.org/2000/svg">
<path d="M65.8514 38.3146C59.7065 16.8294 26.0209 42.4823 9.59194 58.0877C7.76285 60.2029 8.53176 61.6406 10.8786 61.76C31.9993 62.8347 71.9962 59.7998 65.8514 38.3146Z" fill="#FEA622" stroke="black" stroke-width="2"/>
<path d="M83.8878 15.484C83.2963 3.59731 73.1878 19.9201 68.2076 29.5674C66.7114 32.3576 68.8708 34.4021 70.1375 35.0757L89.3739 38.9867C91.8682 38.9145 95.4638 37.5401 89.8921 32.6207C95.4976 29.0075 92.338 24.8922 90.0574 23.2862C92.7088 20.0667 95.1867 13.999 83.8878 15.484Z" fill="#9AC300" stroke="black" stroke-width="2"/>
<path d="M46.3101 40.4678C44.2349 36.3174 40.4736 36.2526 38.8523 36.5769L42.0948 34.6313C43.608 35.1717 46.5695 37.0956 46.3101 40.4678Z" fill="white"/>
<path d="M33.9888 48.8985C31.9136 44.7481 28.1523 44.359 26.531 44.6832L29.125 42.7378C30.6382 43.2782 34.2482 45.5263 33.9888 48.8985Z" fill="white"/>
</svg>
